<svg id="Calque_1" data-name="Calque 1" xmlns="http://www.w3.org/2000/svg" viewBox="0 0 500 500"><path d="M173.16,241.54a7.63,7.63,0,0,1,2.26-5.45l15.92-15.92-10.88-10.88-15.92,15.92a22.93,22.93,0,0,0-6.77,16.33v27h15.39Z"/><path d="M372.81,203.45,359.15,189.8a23.12,23.12,0,0,0,14-21.24V153.18a23.1,23.1,0,0,0-23.08-23.08h-7.69v-.9a38.43,38.43,0,0,0-26.31-36.5l-4.06-1.35a23.05,23.05,0,0,1-15.79-21.9v-24a38.47,38.47,0,1,0-76.94,0v24a23,23,0,0,1-15.76,21.89l-4.09,1.37a38.41,38.41,0,0,0-26.31,36.49v.9h-7.69a23.1,23.1,0,0,0-23.08,23.08v15.38a23.11,23.11,0,0,0,14.05,21.24l-13.67,13.65A53.55,53.55,0,0,0,127,241.54V430.15A53.92,53.92,0,0,0,180.85,484H334.73a53.92,53.92,0,0,0,53.85-53.85V241.54A53.55,53.55,0,0,0,372.81,203.45ZM188.55,129.2a23.07,23.07,0,0,1,15.76-21.9l4.1-1.36a38.41,38.41,0,0,0,26.3-36.49v-24a23.08,23.08,0,1,1,46.16,0v24A38.43,38.43,0,0,0,307.18,106l4.07,1.34A23.08,23.08,0,0,1,327,129.2v.9H188.55Zm-30.78,24a7.71,7.71,0,0,1,7.7-7.7H350.11a7.71,7.71,0,0,1,7.7,7.7v15.38a7.71,7.71,0,0,1-7.7,7.7H165.47a7.71,7.71,0,0,1-7.7-7.7Zm-4.12,61.15,22.7-22.68H339.23l22.69,22.68a38.26,38.26,0,0,1,11.27,27.21v48.17c-14.05-8.77-37.45-13.44-69.24-13.44-25.26,0-56.67,11-86.79,30.32-19.07-11.12-40.73-21-74.77-22.35v-42.7A38.29,38.29,0,0,1,153.65,214.33ZM373.19,314.74c0,14-27.18,23.08-69.24,23.08-33,0-52.48-10.51-72-22.29,25.59-15.27,51.33-23.87,72-23.87C346,291.66,373.19,300.72,373.19,314.74ZM334.73,468.61H180.85a38.5,38.5,0,0,1-38.46-38.46V299.52c36.21,1.51,56.25,13.72,77.39,26.6,21.86,13.32,44.46,27.09,84.17,27.09,31.79,0,55.19-4.66,69.24-13.44v90.38A38.5,38.5,0,0,1,334.73,468.61Z"/><path d="M319.34,407.06a23.09,23.09,0,1,0,23.08,23.09A23.11,23.11,0,0,0,319.34,407.06Zm0,30.78a7.7,7.7,0,1,1,7.69-7.69A7.7,7.7,0,0,1,319.34,437.84Z"/><path d="M180.85,337.82a23.08,23.08,0,1,0,23.09,23.08A23.11,23.11,0,0,0,180.85,337.82Zm0,30.78a7.7,7.7,0,1,1,7.7-7.7A7.71,7.71,0,0,1,180.85,368.6Z"/><path d="M227,391.68a23.08,23.08,0,1,0,23.08,23.08A23.1,23.1,0,0,0,227,391.68Zm0,30.77a7.7,7.7,0,1,1,7.69-7.69A7.71,7.71,0,0,1,227,422.45Z"/></svg>