<svg id="Calque_1" data-name="Calque 1" xmlns="http://www.w3.org/2000/svg" viewBox="0 0 500 500"><circle cx="120.82" cy="120.97" r="8.06"/><circle cx="169.21" cy="120.97" r="8.06"/><path d="M175.57,150.47l.85-1.7L162,141.55l-.85,1.71a18,18,0,0,1-32.26,0l-.84-1.7-14.43,7.21.85,1.7a34.16,34.16,0,0,0,61.11,0Z"/><circle cx="330.5" cy="120.97" r="8.06"/><circle cx="378.88" cy="120.97" r="8.06"/><path d="M370.82,143.26a18,18,0,0,1-32.26,0l-.85-1.7-14.42,7.21.84,1.7a34.17,34.17,0,0,0,61.12,0l.84-1.7-14.42-7.22Z"/><path d="M499.85,302.51a28.05,28.05,0,0,0-2.27-11.08l-9.48-22.1a75.46,75.46,0,0,0-40.41-39.73,35.74,35.74,0,0,0,3.77-15.79v-117a96.77,96.77,0,0,0-193.54,0v117a35.9,35.9,0,0,0,1.08,8.42,84.12,84.12,0,0,0-9.13,4.87,84.9,84.9,0,0,0-32.14-11.73l-33.94-4.85-4.7-18.75a64.74,64.74,0,0,0,28.32-38.55h2.12A32.29,32.29,0,0,0,241.79,121a31.93,31.93,0,0,0-7.23-20.09l5.81-21.65A47.19,47.19,0,0,0,210.7,23.37l-53-19.29a67.7,67.7,0,0,0-77.31,23l-4.09,5.45a32.32,32.32,0,0,0-28,32c0,13,4.55,28.92,7,36.59a31.94,31.94,0,0,0-7,19.86A32.29,32.29,0,0,0,80.5,153.23h2.12a64.59,64.59,0,0,0,28.31,38.54l-4.69,18.75-33.95,4.86A84.36,84.36,0,0,0-.15,298.9v55.94A16.15,16.15,0,0,0,16,371h6.07l10.06,45.26V500H445.17l-6.06-30.31c-.4-2-.66-4-1-6a48.2,48.2,0,0,0,28.28-34l23.53-105.92A27.94,27.94,0,0,0,499.85,302.51Zm-26.57-26.83,9.47,22.1a11.78,11.78,0,0,1,1,4.73,12,12,0,0,1-12,12h-1.44a12,12,0,0,1-10-5.35l-12.57-18.85H440a20.81,20.81,0,0,1-20.81-20.81V249.6a35.7,35.7,0,0,0,17.56-6.84A59.21,59.21,0,0,1,473.28,275.68ZM405.33,391.82l-59.91-26.63-2.74-11a31.12,31.12,0,0,0-56.87-8.49l-3.42-.68a33.51,33.51,0,0,0-7.37-.65,103,103,0,0,1,15-69.32l17.12-27.38a39.55,39.55,0,0,0,4.34-1.85,56.16,56.16,0,0,0,86.38,0,40.32,40.32,0,0,0,5.2,2.09v21.55a36.74,36.74,0,0,0,21.31,33.39ZM354.69,185.48A48.43,48.43,0,0,1,306.3,137.1V103.39l.29-.06A121.06,121.06,0,0,0,359,78.76a88.71,88.71,0,0,0,44.11,24.73V137.1A48.44,48.44,0,0,1,354.69,185.48Zm0,16.13A64.24,64.24,0,0,0,372.87,199l2.21,16a40.33,40.33,0,0,0,9.91,21.2,40.14,40.14,0,0,1-60.61,0,40.26,40.26,0,0,0,9.91-21.2l2.21-16A64.31,64.31,0,0,0,354.69,201.61ZM435.33,96.77v117a20.08,20.08,0,0,1-20.05,20.06,24.56,24.56,0,0,1-24.23-21.1l-2.84-20.65a64.5,64.5,0,0,0,31-55V89.78l-6.92-1a72.66,72.66,0,0,1-60.87-57.58l-3-14.77c2.06-.16,4.12-.31,6.23-.31A80.73,80.73,0,0,1,435.33,96.77ZM274,96.77a80.75,80.75,0,0,1,58.54-77.49l3,15.09a88.18,88.18,0,0,0,13.23,31.84,105,105,0,0,1-45.4,21.3l-13.26,2.65V137.1a64.48,64.48,0,0,0,31,55l-2.84,20.65a24.56,24.56,0,0,1-24.23,21.1A20.08,20.08,0,0,1,274,213.81Zm-7.78,139.88a36.09,36.09,0,0,0,20.9,12.65l-10.78,17.24a121.14,121.14,0,0,0-18.46,64.36,122.5,122.5,0,0,0,1.46,17.83,34.38,34.38,0,0,0-5.17,3.36c-.41.34-.71.77-1.1,1.14a32.7,32.7,0,0,0-27.45-16.79V298.9a68.12,68.12,0,0,1,30.39-56.79A69.43,69.43,0,0,1,266.26,236.65Zm6.82,176.49c.59,6.12,1,12.29,1,18.42a194.23,194.23,0,0,1-3.77,38.12l-2.84,14.19H225.66V405.46l11.57-4.63a33.07,33.07,0,0,0,9.25-5.66,32.75,32.75,0,0,0,16,13.73ZM184.34,226.9l-5.18,34.19L158,248.4l22.11-22.1Zm25.19-89.8V104.84a16.13,16.13,0,0,1,0,32.26ZM80.5,48.39h4l8.72-11.63a51.59,51.59,0,0,1,58.88-17.53l53.05,19.29a31.09,31.09,0,0,1,19.58,36.65l-4.18,15.61a32,32,0,0,0-11.05-2.07H179.22a74.31,74.31,0,0,1-45.86-15.78A47.3,47.3,0,0,0,135,66.72l1.75-8.7L121,54.87l-1.74,8.69A31.38,31.38,0,0,1,88.56,88.71H80.5A32,32,0,0,0,69,90.92C66.89,83.5,64.37,73,64.37,64.52A16.14,16.14,0,0,1,80.5,48.39ZM64.37,121A16.14,16.14,0,0,1,80.5,104.84V137.1A16.15,16.15,0,0,1,64.37,121ZM96.62,137.1V104.15a47.74,47.74,0,0,0,28.83-17,90.4,90.4,0,0,0,53.77,17.67H193.4V137.1a48.39,48.39,0,0,1-96.78,0ZM145,201.61a64.37,64.37,0,0,0,19.19-2.91l4.13,16.57L145,238.6l-23.32-23.33,4.14-16.57A64.26,64.26,0,0,0,145,201.61Zm-35.1,24.69L132,248.4l-21.14,12.69-5.19-34.19ZM16,298.9a68.12,68.12,0,0,1,30.39-56.79,68.85,68.85,0,0,1,28.21-10.78l15.14-2.16,8.8,58.12L145,259.4l46.5,27.9,8.8-58.12,15.14,2.16A68.54,68.54,0,0,1,236,237.76a84.09,84.09,0,0,0-26.44,61.14v33.15A31.1,31.1,0,0,0,157,346.16l-2.74,11L94.36,383.76l-3.57-16.62a16,16,0,0,0,5.83-12.3v-6.76a165.2,165.2,0,0,0-8.47-52.25l-15.3,5.11a149.08,149.08,0,0,1,7.65,47.14v6.76H16ZM75.12,371l7.63,35.59L168,368.68l4.65-18.62a15,15,0,0,1,28-3.05l4.46,8.88,15.39-3.08a17.83,17.83,0,0,1,21.32,17.46,16.71,16.71,0,0,1-10.55,15.58L92.81,441.23a32.48,32.48,0,0,1-43.76-23.1L38.58,371ZM48.24,447.1a48.36,48.36,0,0,0,50.55,9.1l110.74-44.29v72H48.24Zm375.05,25.75,2.21,11H283.88l2.2-11a211.12,211.12,0,0,0,4.09-41.28c0-3.9-.13-7.82-.35-11.73L400.9,464.27A48.53,48.53,0,0,0,419,467.74c1.17,0,2.29-.21,3.45-.29C422.71,469.25,422.94,471.06,423.29,472.85Zm27.35-46.66a32.47,32.47,0,0,1-43.75,23.1L268.46,393.92a16.71,16.71,0,0,1-10.54-15.58,17.81,17.81,0,0,1,21.31-17.47L294.62,364l4.46-8.89a15,15,0,0,1,28,3.07l4.65,18.61,72.92,32.41L411.57,430l15.29-5.11-7.36-22.1,20.38-95.13,7,10.48a28.06,28.06,0,0,0,23.4,12.53h1.44l.17,0Z"/></svg>