<svg id="Calque_1" data-name="Calque 1" xmlns="http://www.w3.org/2000/svg" viewBox="0 0 500 500"><path d="M234,435.55q8,.18,16.31.19V419.61q-8.13,0-15.94-.19Z"/><path d="M53.56,400.81c25.46,11,80.63,30,164.08,34.13l.81-16.12c-80.92-4-134-22.29-158.5-32.82Z"/><path d="M467.85,280.7a24.13,24.13,0,0,0-24-22.37H411.59a24,24,0,0,0-16.13,6.29,24,24,0,0,0-16.13-6.29H347.07a24,24,0,0,0-17.8,7.94,29.64,29.64,0,0,0-20.12-7.94h-37a29.71,29.71,0,0,0-21.8,9.59,29.73,29.73,0,0,0-21.8-9.59h-37a29.65,29.65,0,0,0-20.13,7.94,24,24,0,0,0-17.8-7.94H121.27a24,24,0,0,0-16.13,6.29A24,24,0,0,0,89,258.33H56.76a24.13,24.13,0,0,0-24,22.37l-31,100.7a33,33,0,0,0,23.75,41.78C35.93,428.89,112.37,468,250.3,468s214.37-39.11,224.8-44.83a33,33,0,0,0,23.74-41.77Zm-56.26-6.25h32.26a8.07,8.07,0,0,1,8.06,8.07v32.26a24.2,24.2,0,0,1-48.39,0V282.52A8.08,8.08,0,0,1,411.59,274.45ZM339,282.52a8.07,8.07,0,0,1,8.06-8.07h32.26a8.08,8.08,0,0,1,8.07,8.07v32.26a24.2,24.2,0,0,1-48.39,0Zm-66.91-8.07h37a13.76,13.76,0,0,1,13.73,13.74,13.54,13.54,0,0,1-.33,3l-10.36,46.62a22.09,22.09,0,0,1-43.13,0L258.7,291.17a13.54,13.54,0,0,1-.33-3A13.76,13.76,0,0,1,272.1,274.45Zm-80.64,0h37a13.76,13.76,0,0,1,13.74,13.74,14.17,14.17,0,0,1-.33,3l-10.37,46.62a22.09,22.09,0,0,1-43.13,0l-10.36-46.62a13.54,13.54,0,0,1-.33-3A13.76,13.76,0,0,1,191.46,274.45Zm-70.19,0h32.26a8.07,8.07,0,0,1,8.06,8.07v32.26a24.19,24.19,0,1,1-48.38,0V282.52A8.07,8.07,0,0,1,121.27,274.45Zm-72.58,8.07a8.07,8.07,0,0,1,8.07-8.07H89a8.08,8.08,0,0,1,8.07,8.07v32.26a24.2,24.2,0,0,1-48.39,0ZM470.6,407.65l-1.29.26-1.16.67c-.75.44-76.49,43.29-217.85,43.29-140.92,0-217.11-42.86-217.86-43.3l-1.16-.66L30,407.65a16.92,16.92,0,0,1-13.56-16.54,16.61,16.61,0,0,1,.75-5l17.84-58a40,40,0,0,0,70.12,10.56,40,40,0,0,0,66.36-2.66l1.17,5.23a38.22,38.22,0,0,0,74.62,0l3-13.53,3,13.53a38.22,38.22,0,0,0,74.63,0l1.16-5.23a40,40,0,0,0,66.36,2.66,40,40,0,0,0,70.12-10.56l17.84,58a16.61,16.61,0,0,1,.75,5A16.92,16.92,0,0,1,470.6,407.65Z"/><path d="M266.62,65q-8-.21-16.32-.2V80.91q8.12,0,15.94.19Z"/><path d="M447,99.71c-25.46-11-80.63-30-164.08-34.12l-.8,16.1c80.93,4,134,22.31,158.49,32.84Z"/><path d="M32.75,219.82a24.14,24.14,0,0,0,24,22.38H89a24,24,0,0,0,16.13-6.29,24,24,0,0,0,16.13,6.29h32.26a24,24,0,0,0,17.8-7.95,29.65,29.65,0,0,0,20.13,7.95h37a29.72,29.72,0,0,0,21.8-9.6,29.74,29.74,0,0,0,21.8,9.6h37a29.69,29.69,0,0,0,20.13-7.95,24,24,0,0,0,17.79,7.95h32.26a24,24,0,0,0,16.13-6.29,24,24,0,0,0,16.13,6.29h32.26a24.14,24.14,0,0,0,24-22.38l31-100.69A33,33,0,0,0,475.1,77.34c-10.43-5.71-86.87-44.82-224.8-44.82S35.93,71.63,25.51,77.35A33,33,0,0,0,1.76,119.12ZM89,226.07H56.76A8.07,8.07,0,0,1,48.69,218V185.75a24.2,24.2,0,1,1,48.39,0V218A8.08,8.08,0,0,1,89,226.07ZM161.59,218a8.07,8.07,0,0,1-8.06,8.07H121.27a8.07,8.07,0,0,1-8.06-8.07V185.75a24.19,24.19,0,1,1,48.38,0Zm66.91,8.07h-37a13.75,13.75,0,0,1-13.74-13.74,13.61,13.61,0,0,1,.33-3l10.36-46.63a22.09,22.09,0,0,1,43.13,0l10.37,46.64a13.93,13.93,0,0,1,.33,3A13.75,13.75,0,0,1,228.5,226.07Zm80.65,0h-37a13.75,13.75,0,0,1-13.73-13.74,13.61,13.61,0,0,1,.33-3l10.36-46.63a22.09,22.09,0,0,1,43.13,0l10.37,46.64a13.93,13.93,0,0,1,.32,3A13.75,13.75,0,0,1,309.15,226.07Zm70.18,0H347.07A8.07,8.07,0,0,1,339,218V185.75a24.2,24.2,0,1,1,48.39,0V218A8.08,8.08,0,0,1,379.33,226.07ZM451.91,218a8.07,8.07,0,0,1-8.06,8.07H411.59a8.08,8.08,0,0,1-8.07-8.07V185.75a24.2,24.2,0,1,1,48.39,0ZM30,92.87l1.3-.26,1.16-.67c.74-.43,76.48-43.29,217.84-43.29,140.93,0,217.11,42.86,217.86,43.3l1.16.67,1.29.26a16.89,16.89,0,0,1,13.56,16.54,16.71,16.71,0,0,1-.75,5l-17.84,58a40,40,0,0,0-70.12-10.56,40,40,0,0,0-66.36,2.66l-1.16-5.23a38.22,38.22,0,0,0-74.63,0l-3,13.54-3-13.54a38.22,38.22,0,0,0-74.62,0l-1.17,5.23a40,40,0,0,0-66.36-2.66A40,40,0,0,0,35,172.36l-17.84-58a16.6,16.6,0,0,1-.75-5A16.91,16.91,0,0,1,30,92.87Z"/></svg>