<svg id="Calque_1" data-name="Calque 1" xmlns="http://www.w3.org/2000/svg" viewBox="0 0 500 500"><path d="M483.56,47.33V23.13A16.15,16.15,0,0,0,467.43,7H435.16L304.23,22.35a16.15,16.15,0,0,0-14.25,16v9H273.85V321.56H241.59V95.72H209.33V63.46H31.89V95.72H-.38V499H499.69V47.33Zm-177.45-9L435.64,23.13h31.79v24.2H306.11ZM483.56,63.46V128H467.43V95.72A16.15,16.15,0,0,0,451.3,79.59H419A16.15,16.15,0,0,0,402.9,95.72V128H370.64V95.72a16.15,16.15,0,0,0-16.13-16.13H322.25a16.15,16.15,0,0,0-16.14,16.13V128H290V63.46ZM451.3,289.3H419V257H451.3Zm0-48.4H419A16.15,16.15,0,0,0,402.9,257V289.3H370.64V257a16.15,16.15,0,0,0-16.13-16.13H322.25A16.16,16.16,0,0,0,306.11,257V289.3H290V224.77H483.56V289.3H467.43V257A16.15,16.15,0,0,0,451.3,240.9Zm-96.79,48.4H322.25V257h32.26Zm0-80.66H322.25V176.38h32.26Zm96.79,0H419V176.38H451.3Zm16.13,0V176.38a16.15,16.15,0,0,0-16.13-16.13H419a16.15,16.15,0,0,0-16.13,16.13v32.26H370.64V176.38a16.15,16.15,0,0,0-16.13-16.13H322.25a16.15,16.15,0,0,0-16.14,16.13v32.26H290V144.11H483.56v64.53ZM354.51,128H322.25V95.72h32.26Zm96.79,0H419V95.72H451.3ZM290,305.43H483.56V370H467.43V337.69a16.15,16.15,0,0,0-16.13-16.13H419a16.15,16.15,0,0,0-16.13,16.13V370H370.64V321.56H290ZM451.3,370H419V337.69H451.3ZM48,79.59H193.2V95.72H48ZM15.75,111.85H225.46V321.56H128.67v64.52H64.15v96.79H15.75Zm64.53,371V402.21h48.39v80.66Zm64.52,0V337.69H354.51V482.87Zm225.84-64.53H402.9v64.53H370.64ZM419,482.87V402.21H370.64V386.08H483.56v96.79Z"/><path d="M225.46,353.82H177.07A16.15,16.15,0,0,0,160.93,370v80.66a16.16,16.16,0,0,0,16.14,16.13h48.39a16.15,16.15,0,0,0,16.13-16.13V370A16.14,16.14,0,0,0,225.46,353.82Zm0,16.13v16.13H177.07V370Zm0,32.26v16.13h-48.4V402.21Zm-48.4,48.4V434.48h48.4v16.13Z"/><path d="M322.25,353.82h-48.4A16.15,16.15,0,0,0,257.72,370v80.66a16.15,16.15,0,0,0,16.13,16.13h48.4a16.15,16.15,0,0,0,16.13-16.13V370A16.15,16.15,0,0,0,322.25,353.82Zm0,16.13v16.13h-48.4V370Zm0,32.26v16.13h-48.4V402.21Zm-48.4,48.4V434.48h48.4v16.13Z"/><path d="M144.8,128H96.41v48.4H144.8Zm-16.13,32.27H112.54V144.11h16.13Z"/><path d="M209.33,128h-48.4v48.4h48.4ZM193.2,160.25H177.07V144.11H193.2Z"/><path d="M144.8,192.51H96.41V240.9H144.8Zm-16.13,32.26H112.54V208.64h16.13Z"/><path d="M209.33,192.51h-48.4V240.9h48.4ZM193.2,224.77H177.07V208.64H193.2Z"/><path d="M144.8,257H96.41v48.4H144.8ZM128.67,289.3H112.54V273.16h16.13Z"/><path d="M80.28,128H31.89v48.4H80.28ZM64.15,160.25H48V144.11H64.15Z"/><path d="M80.28,192.51H31.89V240.9H80.28ZM64.15,224.77H48V208.64H64.15Z"/><path d="M80.28,257H31.89v48.4H80.28ZM64.15,289.3H48V273.16H64.15Z"/><path d="M80.28,321.56H31.89V370H80.28ZM64.15,353.82H48V337.69H64.15Z"/><path d="M209.33,257h-48.4v48.4h48.4ZM193.2,289.3H177.07V273.16H193.2Z"/></svg>