<svg id="Calque_1" data-name="Calque 1" xmlns="http://www.w3.org/2000/svg" viewBox="0 0 500 500"><path d="M249,240.21a120,120,0,1,0-120-120h0A120,120,0,0,0,249,240.21Zm0-219.1a99.08,99.08,0,1,1-99.08,99.08h0A99.22,99.22,0,0,1,249,21Z"/><path d="M249,245.73c-102.14.11-184.92,82.88-185,185a10.47,10.47,0,1,0,20.94,0,164.25,164.25,0,0,1,87.84-145.23,94,94,0,0,0,62.84,45.39v31.91c0,23.67-.77,67.72,25.84,94.12a77.57,77.57,0,0,0,52,20.94,31.21,31.21,0,1,0,1-20.94,56.61,56.61,0,0,1-38.19-15C256,422,256,385.09,256.41,363V333h6.14a94.43,94.43,0,0,0,70.73-42.45,164.16,164.16,0,0,1,79.81,140.2,10.48,10.48,0,1,0,21,0C433.92,328.61,351.15,245.84,249,245.73Zm94.26,213a10.48,10.48,0,1,1-10.48,11.66,10.12,10.12,0,0,0,.35-2.79V466.5A10.5,10.5,0,0,1,343.27,458.68ZM260.74,311.57A73.19,73.19,0,0,1,192,276.66a163.81,163.81,0,0,1,122.54,3.49A73.51,73.51,0,0,1,260.74,311.57Z"/><path d="M186.17,388.86H173.39V375.59a10.33,10.33,0,0,0-10.12-10.54h-.42a10.47,10.47,0,0,0-10,10.93c0,.08,0,.16,0,.24v12.64H140.43a10.48,10.48,0,0,0,0,20.95h12.29v11.24c0,7.54,4,12.36,10.13,12.5s10.33-4.82,10.47-12.22V409.81h13.2a10.61,10.61,0,0,0,10.61-10.62,10.47,10.47,0,0,0-10.6-10.34Z"/></svg>