<svg id="Calque_1" data-name="Calque 1" xmlns="http://www.w3.org/2000/svg" viewBox="0 0 500 500"><defs><style>.cls-1{stroke:#000;stroke-miterlimit:10;stroke-width:6px;}</style></defs><path class="cls-1" d="M309.33,65.68c-10,1.7-19.64,7.88-25.9,14.23-12-3-23.43,2.32-29.67,8.4-21.5,24.64-43.33,49.19-65,73.73l-62.44-10.12A65.91,65.91,0,0,0,103.5,148c-17.69.32-35.12,8-50.26,21.09C33.05,186.5,16.7,213.31,8.47,245.54s-6.91,64.08,2.23,89.67S37.08,380.43,60.44,387a60.45,60.45,0,0,0,10.47,1.89c9.43,12.14,25.68,21.91,42.36,22.46,66.9,5.39,144.48,5.48,211,5.48a5.45,5.45,0,0,0,3.43-1.2c61.36-48.86,111.63-97.88,161.75-152.08,7.45-9.44,8.4-20.23,7-29-1.89-9.35-7.12-19.27-12-26.41-39.53-65.82-90.54-99-151.64-136.82-8.64-4.68-15.8-6.34-23.5-5.66Zm.69,11c6-.41,11.86,1.67,17,4.12C388.06,118.58,437,150.2,475.2,214c4.15,7.35,9.09,15,10.47,22.46,1,6.82-.24,14.76-4.81,20.41-49.27,53.24-98.55,101.12-158.49,149-66.26,0-143-.15-208.75-5.49A47.55,47.55,0,0,1,85.14,388.7c15.23-1.95,30.11-9.24,43.23-20.57,20.18-17.43,36.53-44.24,44.77-76.47s6.91-63.91-2.23-89.5c-5-14-12.46-26.18-22-35.49,14.53,1.42,33.59,4.4,44.09,6.51,24.44,18.18,45.21,62.64,63,104.42,9.59,22.6,18.42,44.27,27.61,60.7,7.38,12.37,17.76,28.86,32.25,29.14a5.68,5.68,0,0,0,5.32-4.45c16.59-82.95,16.65-160.43,11.15-243-.53-2.67-2-5.34-2.92-7.54,39.16,26.59,75.17,61.87,108.58,99.44a5.52,5.52,0,1,0,8.23-7.37c-44-49.46-92.85-95.48-148.54-123.45A26.28,26.28,0,0,1,310,76.65ZM284,91.06c18.69,5.52,32.73,17.55,37.39,30.69,5.26,79.47,5.18,153.5-9.78,232.32-8.75-3.49-14.32-13.93-18.35-21.09-8.65-15.46-17.66-37-27.27-59.67C248.4,232,229.21,186.59,200.75,165.12L261.48,96.2c7.41-6.1,13.8-7.45,22.47-5.14ZM103.67,159a50.4,50.4,0,0,1,14.58,1.72c19.2,5.39,34.08,21.9,42.37,45.09s9.61,52.9,1.88,83.16-23,55.12-41.16,70.81-38.78,22.2-58,16.8S29.28,354.63,21,331.44s-9.62-52.9-1.89-83.16,23-55.12,41.17-70.81C73.9,165.71,89,159.21,103.67,159Zm2.23,11.15C70.49,179,46.08,210.94,35.4,247.25s-8,77.55,12.52,106.82a5.49,5.49,0,1,0,8.92-6.34C38.92,322.13,36.13,284,46,250.34s32.15-62,62.61-69.61a5.73,5.73,0,0,0,4.89-6.09C112.26,169.73,108.85,169.81,105.9,170.1Zm5.49,27.26c-11.7,0-24.59,6.95-36.2,24.35-2.52,5.84-1.15,10.22,2.58,14.74a41.5,41.5,0,0,0,11.15,8.23,76.75,76.75,0,0,0,13.72,5.83,75.81,75.81,0,0,0,3.6,13.89c1.49,4.1,3.25,8,6.18,11.31,4.16,4.41,8.17,4.87,13.72,3.26,15.24-6.25,23.48-19.14,25-32.4a44.81,44.81,0,0,0-12.52-36.69c-6.14-6.14-15.58-12.52-27.27-12.52Zm0,11c7.51,0,14.54,4.42,19.38,9.26a34.8,34.8,0,0,1,9.43,27.78c-1.17,9.95-6.56,18.87-18.52,23.66-2.72-1.46-4.07-6-5.15-8.4a93.9,93.9,0,0,1-3.77-14.92,5.63,5.63,0,0,0-3.77-4.29,110.75,110.75,0,0,1-14.93-6.51c-4-2-8.17-4.67-9.26-7.72,10.17-15,19.18-18.86,26.59-18.86ZM79.83,257.71a11,11,0,1,0,11,11A11,11,0,0,0,79.83,257.71Z"/></svg>