<svg id="Calque_1" data-name="Calque 1" xmlns="http://www.w3.org/2000/svg" viewBox="0 0 500 500"><path d="M220,93.36A64.74,64.74,0,0,0,155,157.79v13.45c0,.6,0,1.21,0,1.81a84.6,84.6,0,0,0,.71,10.78A104.05,104.05,0,0,0,182,241l4.24,4.64A41.25,41.25,0,0,0,216.42,259h6.38a41.08,41.08,0,0,0,30.2-13.3l4.17-4.64a103.68,103.68,0,0,0,27.15-68.68V157.79a63.16,63.16,0,0,0-2.52-17.55A64.89,64.89,0,0,0,220,93.36ZM261.11,172a77.81,77.81,0,0,1-.63,8.89,80,80,0,0,1-20.3,44.13l-4.25,4.64a17.24,17.24,0,0,1-12.74,5.59h-6.37a17.26,17.26,0,0,1-12.75-5.59L199.82,225a79.16,79.16,0,0,1-20.29-44.13,60.85,60.85,0,0,1-.55-8.42l-.4-1.18V158a42.16,42.16,0,0,1,1.58-11.33,41.07,41.07,0,0,1,78.67,0h0a39.74,39.74,0,0,1,1.57,10.94Z"/><path d="M481.78,397.41h0L412.7,328.58C472.19,222,434,87.31,327.35,27.83A220.92,220.92,0,0,0,220-.18h0C98.32.55,0,99.32-.23,221A220.67,220.67,0,0,0,328.06,413.46l69.15,68.84A59.76,59.76,0,0,0,439.77,500h0a60,60,0,0,0,42-102.59ZM465,465.7a36,36,0,0,1-25.41,10.7h0a36.44,36.44,0,0,1-26-10.86l-75.52-75.21a11.76,11.76,0,0,0-8.34-3.46,11.42,11.42,0,0,0-6.22,1.81c-91.25,58.92-213,32.7-271.9-58.55A196.67,196.67,0,0,1,80.88,81.4a195.38,195.38,0,0,1,138.93-58h0c109,0,197.35,88.43,197.32,197.44a197.4,197.4,0,0,1-29.28,103.39,11.87,11.87,0,0,0,1.65,14.63l60.81,60.5,14.79,14.56a36.1,36.1,0,0,1,.46,51.06c-.15.16-.3.31-.46.46Z"/><path d="M220.2,49.54a171.19,171.19,0,1,0,121,292.25h0a171.18,171.18,0,0,0-121-292.25ZM124.14,332.75a34.25,34.25,0,0,1,23.6-20.38h1.18l30.29-11a11.59,11.59,0,0,0,7.16-7.4l2.28-5.82,25.26,15.19a11.72,11.72,0,0,0,12.19,0l25.17-15.19,2.13,5.27v.71a11.67,11.67,0,0,0,7.16,7.24l30.29,11H292A34.62,34.62,0,0,1,315.63,333a146.79,146.79,0,0,1-191.88,0Zm209.27-17.31a58.22,58.22,0,0,0-34.86-26.2l-24.7-8.89L270.08,271a16.29,16.29,0,0,0-21.17-9.08,14.93,14.93,0,0,0-2.43,1.22L220,278.86l-26.12-15.73a16.41,16.41,0,0,0-23.6,7.86l-3.85,9.52-25,8.73a58.5,58.5,0,0,0-34.77,25.65,147.66,147.66,0,1,1,226.73,0Z"/></svg>