<svg id="Calque_1" data-name="Calque 1" xmlns="http://www.w3.org/2000/svg" viewBox="0 0 500 500"><path d="M197.45,296.05a47.16,47.16,0,0,1,38.09-46.39v-10a12.89,12.89,0,1,1,25.77,0V250a50.74,50.74,0,0,1,34.17,29.53,12.89,12.89,0,0,1-23.76,9.95A25.12,25.12,0,0,0,248.48,274c-12.17,0-25.21,6.9-25.21,22.06,0,4,0,15.92,28.09,22.37h.42c41.23,9.63,47.67,33.81,47.67,47.36a47.16,47.16,0,0,1-38.09,46.39v10.31a12.89,12.89,0,1,1-25.77,0V412.17a50.77,50.77,0,0,1-34.17-29.53A12.89,12.89,0,1,1,224.88,372q.17.36.3.72a25.21,25.21,0,0,0,23.3,15.46c12.16,0,25.2-6.9,25.2-22.06,0-4,0-15.92-28.09-22.37h-.41C203.63,333.83,197.45,309.65,197.45,296.05ZM290.23,119.2A12.88,12.88,0,0,0,308,116l44.38-63.19A12.94,12.94,0,0,0,350,35.4c-57-47.32-146.28-47.27-203.24.15a12.9,12.9,0,0,0-2.32,17.32L188.84,116a12.89,12.89,0,0,0,21.08-14.8L172.71,48.23a137.61,137.61,0,0,1,151.43,0l-37.21,53a12.87,12.87,0,0,0,3.14,17.93Zm-215.35,251A293,293,0,0,1,179.05,146.88a12.86,12.86,0,0,1,8.3-3h122.1a12.86,12.86,0,0,1,8.3,3A293,293,0,0,1,422,370.16v36.65l4,1.91A48,48,0,0,1,405.32,500H91.48a48,48,0,0,1-20.62-91.28l4-1.91Zm-5.15,86.75a22.05,22.05,0,0,0,21.64,17.32h313.9A22.21,22.21,0,0,0,414.86,432l-11.29-5.16a12.88,12.88,0,0,1-7.27-12V370.16a267.26,267.26,0,0,0-91.59-200.55H192.14a267.2,267.2,0,0,0-91.49,200.61V415a12.87,12.87,0,0,1-7.32,11.6l-11.28,5.16a22.09,22.09,0,0,0-12.22,25.2Z"/></svg>