<svg id="Calque_1" data-name="Calque 1" xmlns="http://www.w3.org/2000/svg" viewBox="0 0 500 500"><path d="M490.69,426.24a55.69,55.69,0,0,0,9.25-30.87,56.27,56.27,0,0,0-95.68-40.24h-17V322.94h64.38V1H.94V322.94h32.2v8a24.17,24.17,0,0,0,24.14,24.15h8V383.3a84.51,84.51,0,1,0,169,0V322.94H371.17v32.19h-17a56.28,56.28,0,0,0-95.69,40.24,55.78,55.78,0,0,0,9.25,30.87l-8,28a32.78,32.78,0,0,0-1.24,8.92v4.38a32.44,32.44,0,0,0,62.09,13.17l14.58-32.81a56.13,56.13,0,0,0,18.94-12.31h50.25a56,56,0,0,0,18.94,12.31l14.58,32.81a32.43,32.43,0,0,0,62.07-13.16v-4.39a32.65,32.65,0,0,0-1.24-8.91ZM17,97.58V81.48H276.17L266.1,97.58H49.23v16.1H256L246,129.77H17V113.68h16.1V97.58Zm278.1-16.1H332.5l-30.18,48.29H265Zm36.22,32.2h72V97.58H341.42l10.06-16.1h84.08v16.1h-16.1v16.1h16.1v16.09H321.3ZM435.56,17.1V65.39H17V17.1ZM17,145.87H435.56v161H387.27v-4a84.51,84.51,0,0,0-169,0v4H17ZM49.23,331v-8H97.52v8a8,8,0,0,1-8,8H57.28A8.05,8.05,0,0,1,49.23,331Zm169,52.32a68.41,68.41,0,0,1-136.82,0V355.13h8A24.17,24.17,0,0,0,113.62,331v-8H218.25Zm16.1-76.46v-4a68.41,68.41,0,0,1,136.82,0v4ZM483.22,458.68a16.25,16.25,0,0,1,.63,4.5v4.38a16.34,16.34,0,0,1-31.27,6.64L435.1,434.88l-3.48-1.09a40.11,40.11,0,0,1-17.85-11.6l-2.4-2.67H347.06l-2.4,2.67a39.84,39.84,0,0,1-17.85,11.6l-3.47,1.09L305.86,474.2a16.34,16.34,0,0,1-31.27-6.63v-4.39a16.3,16.3,0,0,1,.63-4.5L285.4,423l-2.47-3.21a39.84,39.84,0,0,1-8.34-24.46,40.19,40.19,0,0,1,70.17-26.82l2.4,2.68h64.12l2.4-2.68a40.19,40.19,0,0,1,61.83,51.28L473,423Z"/><rect x="435.56" y="371.23" width="16.1" height="16.1"/><rect x="451.65" y="387.32" width="16.1" height="16.1"/><rect x="435.56" y="403.42" width="16.1" height="16.1"/><rect x="419.46" y="387.32" width="16.1" height="16.1"/><polygon points="322.88 371.23 306.78 371.23 306.78 387.32 290.68 387.32 290.68 403.42 306.78 403.42 306.78 419.52 322.88 419.52 322.88 403.42 338.98 403.42 338.98 387.32 322.88 387.32 322.88 371.23"/></svg>